<svg width="45" height="32" viewBox="0 0 45 32" fill="none" xmlns="http://www.w3.org/2000/svg">
<g clip-path="url(#clip0_29_2)">
<path fill-rule="evenodd" clip-rule="evenodd" d="M10.7965 22.9582C7.66834 20.363 5.43402 17.3967 4.38583 15.8646C5.43402 14.3324 7.66834 11.3661 10.7965 8.771C14.0261 6.09169 18.0139 3.96614 22.4999 3.96614C26.9859 3.96614 30.9738 6.09169 34.2034 8.771C37.3316 11.3661 39.5659 14.3324 40.6141 15.8646C39.5659 17.3967 37.3316 20.363 34.2034 22.9582C30.9738 25.6375 26.9859 27.763 22.4999 27.763C18.0139 27.763 14.0261 25.6375 10.7965 22.9582ZM22.4999 0C16.6416 0 11.7324 2.76563 8.11975 5.7627C4.49398 8.77064 1.97791 12.1713 0.861291 13.8216C0.0175905 15.0684 0.0175905 16.6608 0.861291 17.9075C1.97791 19.5578 4.49398 22.9584 8.11975 25.9665C11.7324 28.9635 16.6416 31.7291 22.4999 31.7291C28.3582 31.7291 33.2675 28.9635 36.8802 25.9665C40.5059 22.9584 43.0219 19.5578 44.1386 17.9075C44.9822 16.6608 44.9822 15.0684 44.1386 13.8216C43.0219 12.1713 40.5059 8.77064 36.8802 5.7627C33.2675 2.76563 28.3582 0 22.4999 0ZM18.3924 15.8646C18.3924 13.6741 20.2315 11.8984 22.4999 11.8984C24.7684 11.8984 26.6074 13.6741 26.6074 15.8646C26.6074 18.0551 24.7684 19.8307 22.4999 19.8307C20.2315 19.8307 18.3924 18.0551 18.3924 15.8646ZM22.4999 7.93228C17.9629 7.93228 14.2849 11.4837 14.2849 15.8646C14.2849 20.2454 17.9629 23.7968 22.4999 23.7968C27.037 23.7968 30.7149 20.2454 30.7149 15.8646C30.7149 11.4837 27.037 7.93228 22.4999 7.93228Z" fill="#F4EAEA"/>
</g>
<defs>
<clipPath id="clip0_29_2">
<rect width="45" height="32" fill="white"/>
</clipPath>
</defs>
</svg>
